<?xml version="1.0" encoding="UTF-8" standalone="no"?>
<svg width="60px" height="60px" viewBox="0 0 60 60" version="1.1" xmlns="http://www.w3.org/2000/svg" xmlns:xlink="http://www.w3.org/1999/xlink" xmlns:sketch="http://www.bohemiancoding.com/sketch/ns">
    <!-- Generator: Sketch 3.2.2 (9983) - http://www.bohemiancoding.com/sketch -->
    <title>Eyesoft</title>
    <desc>Created with Sketch.</desc>
    <defs></defs>
    <g id="stroked" stroke="none" stroke-width="1" fill="none" fill-rule="evenodd" sketch:type="MSPage">
        <g id="Medical" sketch:type="MSLayerGroup" transform="translate(-500.000000, -477.000000)" stroke="#ffffff" stroke-width="2">
            <g id="Eyesoft" transform="translate(503.000000, 481.000000)" sketch:type="MSShapeGroup">
                <rect id="Rectangle-213" stroke-linecap="round" x="23" y="40" width="8" height="10"></rect>
                <path d="M17,50 L37,50" id="Line" stroke-linecap="square"></path>
                <rect id="Rectangle-212" stroke-linecap="round" x="0" y="0" width="54" height="40" rx="4"></rect>
                <rect id="Rectangle-214" stroke-linecap="round" x="5" y="5" width="44" height="30"></rect>
                <path d="M42.2437024,20 C38.952855,15.0912082 33.3537681,11.8600333 27,11.8600333 C20.6462319,11.8600333 15.047145,15.0912082 11.7562976,20 C15.047145,24.9087918 20.6462319,28.1399667 27,28.1399667 C33.3537681,28.1399667 38.952855,24.9087918 42.2437024,20 Z" id="Oval-257" stroke-linecap="round"></path>
                <path d="M27.0109257,23.9365202 C29.318377,23.9365202 31.1889358,22.0659614 31.1889358,19.7585101 C31.1889358,17.4510588 29.318377,15.5804999 27.0109257,15.5804999 C24.7034744,15.5804999 22.8329155,17.4510588 22.8329155,19.7585101 C22.8329155,22.0659614 24.7034744,23.9365202 27.0109257,23.9365202 Z" id="Oval-259" stroke-linecap="round"></path>
            </g>
        </g>
    </g>
</svg>