<?xml version="1.0" encoding="iso-8859-1"?>
<!DOCTYPE svg PUBLIC "-//W3C//DTD SVG 1.1//EN" "http://www.w3.org/Graphics/SVG/1.1/DTD/svg11.dtd">
<svg 
 version="1.1" xmlns="http://www.w3.org/2000/svg" xmlns:xlink="http://www.w3.org/1999/xlink" x="0px" y="0px" width="512px"
	 height="512px" viewBox="0 0 512 512" enable-background="new 0 0 512 512" xml:space="preserve"
><g id="b75708d097f2188dff6617b0f00caadc"><g></g><g fill="#dedede"><path d="M440.273,128.37l-166.016,81.764c0,0-23.069,8.322-51.613-0.75c-4.02-1.813-11.67-6.463-10.816-15.314
		c1.222-12.682,16.237-19.3,16.237-19.3l-0.365,0.103l170.989-85.353v-0.245c0-11.46-6.191-18.292-15.019-18.292
		c-3.132,0-6.598,0.86-10.242,2.681l-50.955,25.478V74.679c0-16.708-12.229-24.266-27.175-16.791l-166.016,81.764
		c0,0-23.068,8.321-51.613-0.75c-4.02-1.813-11.67-6.463-10.816-15.315c1.222-12.682,16.237-19.3,16.237-19.3l-0.365,0.103
		l11.901-5.94V69.992L65.291,84.656l0.502-0.134c0,0-21.238,10.648-21.238,20.845v294.271c0,0-0.974,27.257,29.198,37.434
		c27.77,9.368,55.529-0.888,55.529-0.888l5.799-2.904l54.448-39.881v76.722c0,0-0.974,27.257,29.198,37.434
		c27.77,9.368,55.53-0.888,55.53-0.888l5.799-2.904l160.217-78.859c14.946-7.469,27.175-27.257,27.175-43.969V145.162
		C467.448,128.453,455.22,120.896,440.273,128.37z M106.71,378.749c-8.642,0.31-18.529-0.51-28.461-3.858
		c-5.741-1.938-10.297-4.508-14.007-7.375v-34.161l3.717,2.871c3.548,2.742,7.554,4.842,12.231,6.425
		c7.086,2.389,14.888,3.597,23.196,3.597c1.053,0,2.092-0.021,3.115-0.056l0.21-0.007V378.749z M106.71,250.293
		c-8.642,0.31-18.529-0.509-28.461-3.858c-5.741-1.938-10.297-4.508-14.007-7.375v-57.722c3.71,2.863,8.267,5.438,14.007,7.375
		c9.932,3.352,19.819,4.164,28.461,3.858V250.293z M251.685,449.231c-8.642,0.31-18.529-0.51-28.462-3.858
		c-5.74-1.938-10.297-4.508-14.007-7.375v-34.16l3.717,2.87c3.548,2.742,7.554,4.842,12.231,6.425
		c7.086,2.389,14.888,3.597,23.196,3.597c1.053,0,2.092-0.021,3.115-0.055l0.21-0.007V449.231z M251.685,320.776
		c-8.642,0.31-18.529-0.51-28.462-3.858c-5.74-1.938-10.297-4.508-14.007-7.375v-57.721c3.71,2.863,8.267,5.438,14.007,7.375
		c9.933,3.352,19.82,4.164,28.462,3.857V320.776z M155.383,96.271l-45.569,22.787V37.032l24.304,4.556l21.265-27.343v25.471
		l73.071-36.535c3.645-1.821,7.11-2.681,10.242-2.681c8.828,0,15.019,6.832,15.019,18.292v0.244L155.383,68.12V96.271z"></path></g></g></svg>